<?xml version="1.0" encoding="UTF-8"?>
<!DOCTYPE svg PUBLIC "-//W3C//DTD SVG 1.1//EN" "http://www.w3.org/Graphics/SVG/1.1/DTD/svg11.dtd">
<svg xmlns="http://www.w3.org/2000/svg" version="1.1" width="96px" height="96px" style="shape-rendering:geometricPrecision; text-rendering:geometricPrecision; image-rendering:optimizeQuality; fill-rule:evenodd; clip-rule:evenodd" xmlns:xlink="http://www.w3.org/1999/xlink">
<g><path style="opacity:0.959" fill="#000000" d="M 44.5,2.5 C 73.4122,3.74597 89.4122,18.746 92.5,47.5C 89.8333,74.8333 74.8333,89.8333 47.5,92.5C 20.1667,89.8333 5.16667,74.8333 2.5,47.5C 4.8879,21.451 18.8879,6.45101 44.5,2.5 Z M 34.5,30.5 C 35.8333,30.5 37.1667,30.5 38.5,30.5C 38.3339,36.1764 38.5006,41.8431 39,47.5C 44.5142,42.2862 49.6808,36.7862 54.5,31C 55.5,30.3333 56.5,30.3333 57.5,31C 53.4867,35.6781 49.4867,40.3448 45.5,45C 49.7663,51.6038 54.433,57.9372 59.5,64C 58.1667,64.6667 56.8333,64.6667 55.5,64C 51.3266,58.3321 46.9933,52.8321 42.5,47.5C 41.5197,48.9814 40.353,50.3147 39,51.5C 38.501,55.8206 38.3343,60.1539 38.5,64.5C 37.1667,64.5 35.8333,64.5 34.5,64.5C 34.5,53.1667 34.5,41.8333 34.5,30.5 Z"/></g>
</svg>
